<?xml version="1.0" encoding="UTF-8"?>
<svg width="140px" height="40px" viewBox="0 0 140 40" version="1.1" xmlns="http://www.w3.org/2000/svg" xmlns:xlink="http://www.w3.org/1999/xlink">
    <!-- Generator: Sketch 64 (93537) - https://sketch.com -->
    <title>app-store-et</title>
    <desc>Created with Sketch.</desc>
    <g id="Symbols" stroke="none" stroke-width="1" fill="none" fill-rule="evenodd">
        <g id="Nav-/-Button-/-ios" fill-rule="nonzero">
            <g id="app-store-et">
                <g id="Group" fill="#000000">
                    <rect id="Rectangle-path" x="0" y="0" width="140" height="40" rx="5"></rect>
                </g>
                <g id="Group" transform="translate(8.000000, 7.000000)" fill="#FFFFFF">
                    <g id="_Group_">
                        <g id="_Group_2">
                            <g id="_Group_3">
                                <path d="M15.7718,12.30068 C15.793657,10.6042091 16.6830429,9.03718611 18.12836,8.14862 C17.2124326,6.84051277 15.733312,6.04087835 14.1372,5.99094 C12.45796,5.81468 10.83001,6.99577 9.9743,6.99577 C9.10203,6.99577 7.78453,6.00844 6.3658,6.03763 C4.49912126,6.09793842 2.80105717,7.13352548 1.89288,8.7655 C-0.04112,12.11392 1.40147,17.03497 3.25408,19.74158 C4.18098,21.06693 5.26426,22.54738 6.68171,22.49488 C8.06877,22.43735 8.58681,21.6104 10.26111,21.6104 C11.91987,21.6104 12.4059,22.49488 13.85211,22.4615 C15.34049,22.43734 16.27824,21.13026 17.17262,19.79236 C17.8385821,18.8479971 18.351036,17.8042735 18.691,16.69985 C16.9232722,15.952169 15.7738564,14.2200247 15.7718,12.30068 Z" id="_Path_"></path>
                                <path d="M13.04017,4.21089 C13.8516966,3.23668191 14.251505,1.98450245 14.15469,0.72027 C12.9148578,0.850490487 11.7696002,1.44304968 10.94711,2.37988 C10.1349387,3.30418903 9.72349463,4.51343268 9.8034,5.74127 C11.0598568,5.75420677 12.2528361,5.19015322 13.04017,4.21089 Z" id="_Path_2"></path>
                            </g>
                        </g>
                    </g>
                    <g id="_Group_4" transform="translate(26.000000, 0.000000)">
                        <g id="Group">
                            <polygon id="Path" points="4.39552 6.70166 0.67384 6.70166 0.67384 0.73486 1.6006 0.73486 1.6006 5.84961 4.39552 5.84961"></polygon>
                            <path d="M5.332,5.42822 C5.332,4.61767 5.93552,4.15039 7.0068,4.08398 L8.22653,4.01367 L8.22653,3.625 C8.22653,3.14941 7.91208,2.88086 7.30466,2.88086 C6.80857,2.88086 6.46482,3.06299 6.36618,3.38135 L5.50583,3.38135 C5.59665,2.60791 6.32419,2.11182 7.34567,2.11182 C8.47458,2.11182 9.1113,2.67382 9.1113,3.625 L9.1113,6.70166 L8.25583,6.70166 L8.25583,6.06885 L8.18552,6.06885 C7.8949686,6.53097633 7.37827364,6.80106323 6.83298,6.77585 C6.45071612,6.81561181 6.06947115,6.69181066 5.78349581,6.43505244 C5.49752047,6.17829423 5.33350608,5.81254331 5.332,5.42822 L5.332,5.42822 Z M8.22653,5.04345 L8.22653,4.667 L7.127,4.7373 C6.50688,4.7788 6.22563,4.98974 6.22563,5.38671 C6.22563,5.79198 6.57719,6.02782 7.06063,6.02782 C7.34680795,6.05677835 7.63248625,5.9683596 7.85227099,5.78280349 C8.07205572,5.59724737 8.20712845,5.33044158 8.22657,5.04346 L8.22653,5.04345 Z" id="Shape"></path>
                            <path d="M10.2461,5.42822 C10.2461,4.61767 10.84962,4.15039 11.9209,4.08398 L13.14063,4.01367 L13.14063,3.625 C13.14063,3.14941 12.82618,2.88086 12.21876,2.88086 C11.72267,2.88086 11.37892,3.06299 11.28028,3.38135 L10.41993,3.38135 C10.51075,2.60791 11.23829,2.11182 12.25977,2.11182 C13.38868,2.11182 14.0254,2.67382 14.0254,3.625 L14.0254,6.70166 L13.16993,6.70166 L13.16993,6.06885 L13.09962,6.06885 C12.8090686,6.53097633 12.2923736,6.80106323 11.74708,6.77585 C11.3648161,6.81561181 10.9835711,6.69181066 10.6975958,6.43505244 C10.4116205,6.17829423 10.2476061,5.81254331 10.2461,5.42822 Z M13.14064,5.04345 L13.14064,4.667 L12.041,4.7373 C11.42088,4.7788 11.13963,4.98974 11.13963,5.38671 C11.13963,5.79198 11.49119,6.02782 11.97463,6.02782 C12.2608193,6.05679853 12.5465161,5.96838901 12.7663165,5.78283079 C12.9861169,5.59727256 13.1211995,5.33045503 13.14064,5.04346 L13.14064,5.04345 Z" id="Shape"></path>
                            <path d="M15.19337,4.44824 C15.19337,3.02539 15.92482,2.12402 17.06251,2.12402 C17.6369868,2.09755013 18.1750375,2.40537287 18.44337,2.91402 L18.50978,2.91402 L18.50978,0.44092 L19.39845,0.44092 L19.39845,6.70166 L18.54689,6.70166 L18.54689,5.99023 L18.47658,5.99023 C18.1879642,6.49465698 17.6432845,6.79727648 17.06252,6.77587 C15.917,6.77588 15.19337,5.87451 15.19337,4.44824 Z M16.11137,4.44824 C16.11137,5.40332 16.56157,5.97803 17.3145,5.97803 C18.0635,5.97803 18.52641,5.39503 18.52641,4.45215 C18.52641,3.51367 18.05864,2.92236 17.3145,2.92236 C16.56642,2.92236 16.11134,3.501 16.11134,4.44824 L16.11137,4.44824 Z" id="Shape"></path>
                            <path d="M20.74024,0.86719 C20.7262167,0.631676113 20.8573051,0.4114428 21.0710127,0.311480102 C21.2847202,0.211517403 21.5377878,0.252059912 21.7095726,0.413780128 C21.8813574,0.575500343 21.9370864,0.825662626 21.8501925,1.04500914 C21.7632986,1.26435566 21.5513709,1.40848597 21.31544,1.40869 C21.1665221,1.41628359 21.020952,1.36279293 20.9123818,1.26058369 C20.8038116,1.15837446 20.7416402,1.01629484 20.74024,0.86719 Z M20.87208,2.19873 L21.75782,2.19873 L21.75782,6.70166 L20.87208,6.70166 L20.87208,2.19873 Z" id="Shape"></path>
                            <path d="M25.377,5.42822 C25.377,4.61767 25.98052,4.15039 27.0518,4.08398 L28.27153,4.01367 L28.27153,3.625 C28.27153,3.14941 27.95708,2.88086 27.34966,2.88086 C26.85357,2.88086 26.50982,3.06299 26.41118,3.38135 L25.55083,3.38135 C25.64165,2.60791 26.36919,2.11182 27.39067,2.11182 C28.51958,2.11182 29.15629,2.67382 29.15629,3.625 L29.15629,6.70166 L28.30082,6.70166 L28.30082,6.06885 L28.23051,6.06885 C27.9399586,6.53097633 27.4232636,6.80106323 26.87797,6.77585 C26.4957077,6.81560879 26.1144655,6.69180627 25.8284925,6.4350484 C25.5425194,6.17829052 25.3785064,5.81254138 25.377,5.42822 Z M28.27153,5.04345 L28.27153,4.667 L27.17192,4.73731 C26.5518,4.77881 26.27055,4.98975 26.27055,5.38672 C26.27055,5.79199 26.62211,6.02783 27.10555,6.02783 C27.3917296,6.05678833 27.6774093,5.96836825 27.8971944,5.78280999 C28.1169794,5.59725173 28.252051,5.33044337 28.27149,5.04346 L28.27153,5.04345 Z" id="Shape"></path>
                            <polygon id="Path" points="30.58937 0.44092 31.478 0.44092 31.478 6.70166 30.58933 6.70166"></polygon>
                            <polygon id="Path" points="32.978 0.44092 33.86667 0.44092 33.86667 6.70166 32.978 6.70166"></polygon>
                            <path d="M35.06886,5.42822 C35.06886,4.61767 35.67238,4.15039 36.74366,4.08398 L37.96339,4.01367 L37.96339,3.625 C37.96339,3.14941 37.64894,2.88086 37.04152,2.88086 C36.54543,2.88086 36.20168,3.06299 36.10304,3.38135 L35.24269,3.38135 C35.33351,2.60791 36.06105,2.11182 37.08253,2.11182 C38.21144,2.11182 38.84816,2.67382 38.84816,3.625 L38.84816,6.70166 L37.99269,6.70166 L37.99269,6.06885 L37.92238,6.06885 C37.6318286,6.53097633 37.1151336,6.80106323 36.56984,6.77585 C36.1875761,6.81561181 35.8063311,6.69181066 35.5203558,6.43505244 C35.2343805,6.17829423 35.0703661,5.81254331 35.06886,5.42822 L35.06886,5.42822 Z M37.96339,5.04345 L37.96339,4.667 L36.86378,4.73731 C36.24366,4.77881 35.96241,4.98975 35.96241,5.38672 C35.96241,5.79199 36.31397,6.02783 36.79741,6.02783 C37.0835961,6.05679986 37.3692864,5.96838505 37.5890804,5.78282559 C37.8088744,5.59726613 37.9439516,5.33045106 37.96339,5.04346 L37.96339,5.04345 Z" id="Shape"></path>
                        </g>
                    </g>
                </g>
                <g id="Group" transform="translate(33.000000, 16.000000)" fill="#FFFFFF">
                    <path d="M8.30763,10.12891 L3.57423,10.12891 L2.43751,13.48536 L0.43263,13.48536 L4.916,1.06689 L6.999,1.06689 L11.4824,13.48536 L9.44337,13.48536 L8.30763,10.12891 Z M4.06447,8.58008 L7.81647,8.58008 L5.96686,3.13233 L5.915,3.13233 L4.06447,8.58008 Z" id="Shape"></path>
                    <path d="M21.165,8.959 C21.165,11.77248 19.65914,13.58009 17.38668,13.58009 C16.2120653,13.6415346 15.1056424,13.0263007 14.53805,11.99609 L14.49505,11.99609 L14.49505,16.48047 L12.63665,16.48047 L12.63665,4.43115 L14.43548,4.43115 L14.43548,5.937 L14.46966,5.937 C15.0624683,4.91324792 16.1700843,4.29827884 17.35247,4.33641 C19.6504,4.33643 21.165,6.15283 21.165,8.959 Z M19.25484,8.959 C19.25484,7.1255 18.30757,5.92043 16.86226,5.92043 C15.44234,5.92043 14.48726,7.1509 14.48726,8.959 C14.48726,10.78322 15.44234,12.0049 16.86226,12.0049 C18.30763,12.0049 19.25489,10.80859 19.25489,8.959 L19.25484,8.959 Z" id="Shape"></path>
                    <path d="M31.1294,8.959 C31.1294,11.77248 29.62403,13.58009 27.35157,13.58009 C26.1769553,13.6415346 25.0705324,13.0263007 24.50294,11.99609 L24.46,11.99609 L24.46,16.48047 L22.6016,16.48047 L22.6016,4.43115 L24.4004,4.43115 L24.4004,5.937 L24.43458,5.937 C25.0273883,4.91324792 26.1350043,4.29827884 27.31739,4.33641 C29.61524,4.33643 31.1294,6.15283 31.1294,8.959 Z M29.21974,8.959 C29.21974,7.1255 28.27246,5.92043 26.82715,5.92043 C25.40723,5.92043 24.45215,7.1509 24.45215,8.959 C24.45215,10.78322 25.40723,12.0049 26.82715,12.0049 C28.27247,12.0049 29.21974,10.80859 29.21974,8.959 L29.21974,8.959 Z" id="Shape"></path>
                    <path d="M37.71534,10.02539 C37.85304,11.25684 39.04934,12.06539 40.68409,12.06539 C42.2505,12.06539 43.37745,11.2568 43.37745,10.14644 C43.37745,9.18257 42.69776,8.60544 41.08839,8.20992 L39.479,7.82178 C37.19873,7.271 36.14013,6.20459 36.14013,4.47412 C36.14013,2.33154 38.00732,0.85986 40.65868,0.85986 C43.28268,0.85986 45.08153,2.33154 45.14208,4.47412 L43.26608,4.47412 C43.15378,3.23486 42.12936,2.48682 40.63229,2.48682 C39.13522,2.48682 38.11081,3.24366 38.11081,4.34522 C38.11081,5.22315 38.76511,5.73975 40.36569,6.13522 L41.73385,6.47116 C44.2817,7.0737 45.3403,8.09762 45.3403,9.91403 C45.3403,12.23727 43.48971,13.69235 40.54635,13.69235 C37.79244,13.69235 35.93307,12.27145 35.81295,10.02535 L37.71534,10.02539 Z" id="Path"></path>
                    <path d="M49.35108,2.28857 L49.35108,4.43115 L51.07276,4.43115 L51.07276,5.90283 L49.35108,5.90283 L49.35108,10.89453 C49.35108,11.66992 49.69581,12.03125 50.45264,12.03125 C50.6570314,12.0276859 50.8610921,12.0133326 51.06397,11.98825 L51.06397,13.45114 C50.7236983,13.5147196 50.3778408,13.5435145 50.03174,13.53708 C48.19874,13.53708 47.48389,12.8486 47.48389,11.09274 L47.48389,5.90283 L46.16749,5.90283 L46.16749,4.43115 L47.4839,4.43115 L47.4839,2.28857 L49.35108,2.28857 Z" id="Path"></path>
                    <path d="M52.06983,8.959 C52.06983,6.10988 53.74756,4.31984 56.36378,4.31984 C58.98878,4.31984 60.6587,6.10984 60.6587,8.959 C60.6587,11.81545 58.99757,13.59767 56.36378,13.59767 C53.731,13.59767 52.06983,11.81543 52.06983,8.959 Z M58.76515,8.959 C58.76515,7.00441 57.86963,5.85109 56.36377,5.85109 C54.85791,5.85109 53.96338,7.0132 53.96338,8.959 C53.96338,10.92091 54.85791,12.06545 56.36377,12.06545 C57.86963,12.06545 58.76515,10.9209 58.76515,8.959 L58.76515,8.959 Z" id="Shape"></path>
                    <path d="M62.19092,4.43115 L63.96339,4.43115 L63.96339,5.97215 L64.00639,5.97215 C64.253566,4.98013841 65.1625226,4.29740156 66.18412,4.33641 C66.398284,4.33566223 66.6118572,4.35892075 66.82084,4.40575 L66.82084,6.144 C66.550471,6.06138332 66.2684296,6.02345129 65.98584,6.0317 C65.439407,6.00956998 64.9106004,6.22739207 64.5382845,6.62796632 C64.1659687,7.02854056 63.987345,7.571842 64.04932,8.1152 L64.04932,13.48532 L62.19092,13.48532 L62.19092,4.43115 Z" id="Path"></path>
                    <path d="M75.38917,10.82617 C75.13917,12.46972 73.53858,13.59765 71.49073,13.59765 C68.85694,13.59765 67.22218,11.833 67.22218,9.00195 C67.22218,6.16162 68.86573,4.31982 71.41261,4.31982 C73.91749,4.31982 75.49269,6.04052 75.49269,8.78613 L75.49269,9.42285 L69.09816,9.42285 L69.09816,9.53515 C69.0384574,10.2091816 69.2712016,10.8763794 69.7371899,11.3670299 C70.2031783,11.8576804 70.8574975,12.1244933 71.53371,12.0996 C72.4355523,12.1840996 73.2858131,11.6662377 73.62453,10.82616 L75.38917,10.82617 Z M69.1069315,8.124 L73.63331,8.124 C73.6671343,7.51826627 73.4467143,6.92588526 73.0251611,6.48959372 C72.6036079,6.05330217 72.0191481,5.81266327 71.41261,5.82566 C70.8012797,5.82204912 70.2138373,6.06279937 69.7808663,6.4943939 C69.3478953,6.92598842 69.1052757,7.51266135 69.1069315,8.124 Z" id="Shape"></path>
                    <polygon id="Path" points="76.74073 5.61084 77.75636 1.06689 79.563 1.06689 78.33253 5.61084"></polygon>
                    <path d="M81.2212,2.04736 C81.212375,1.60808789 81.470467,1.20722825 81.8740009,1.03345192 C82.2775349,0.859675601 82.7461164,0.947603347 83.0592002,1.25585059 C83.3722841,1.56409784 83.4674959,2.03125375 83.3000227,2.43744408 C83.1325495,2.84363442 82.7357563,3.10793554 82.2964,3.10597086 C81.7075539,3.10959072 81.2267266,2.63619147 81.2212,2.04736 Z M81.36768,4.43115 L83.22608,4.43115 L83.22608,13.48535 L81.36768,13.48535 L81.36768,4.43115 Z" id="Shape"></path>
                    <path d="M88.60206,4.32861 C90.60792,4.32861 92.04444,5.43799 92.08741,7.03861 L90.34034,7.03861 C90.26319,6.23881 89.5835,5.74861 88.55034,5.74861 C87.5435,5.74861 86.87261,6.21248 86.87261,6.91853 C86.87261,7.46053 87.31988,7.82185 88.25835,8.05476 L89.78179,8.40828 C91.60601,8.84676 92.29449,9.51766 92.29449,10.84383 C92.29449,12.4786 90.74566,13.59774 88.53375,13.59774 C86.39898,13.59774 84.96246,12.50399 84.82475,10.85165 L86.66557,10.85165 C86.79545,11.72079 87.49174,12.18565 88.61967,12.18565 C89.73002,12.18565 90.42631,11.7296 90.42631,11.00694 C90.42631,10.44737 90.08256,10.14659 89.13631,9.90538 L87.51815,9.50987 C85.88338,9.11339 85.05721,8.27842 85.05721,7.02208 C85.05714,5.42139 86.49366,4.32861 88.60206,4.32861 Z" id="Path"></path>
                    <path d="M96.24366,2.28857 L96.24366,4.43115 L97.96534,4.43115 L97.96534,5.90283 L96.24366,5.90283 L96.24366,10.89453 C96.24366,11.66992 96.58839,12.03125 97.34522,12.03125 C97.5496114,12.0276859 97.7536721,12.0133326 97.95655,11.98825 L97.95655,13.45114 C97.6162783,13.5147196 97.2704208,13.5435145 96.92432,13.53708 C95.09132,13.53708 94.37647,12.8486 94.37647,11.09274 L94.37647,5.90283 L93.06006,5.90283 L93.06006,4.43115 L94.37647,4.43115 L94.37647,2.28857 L96.24366,2.28857 Z" id="Path"></path>
                </g>
            </g>
        </g>
    </g>
</svg>