<?xml version="1.0" encoding="UTF-8"?>
<svg width="48px" height="48px" viewBox="0 0 48 48" version="1.1" xmlns="http://www.w3.org/2000/svg" xmlns:xlink="http://www.w3.org/1999/xlink">
    <!-- Generator: Sketch 53.2 (72643) - https://sketchapp.com -->
    <title>ico-chat-bubble</title>
    <desc>Created with Sketch.</desc>
    <g id="DRAFTS" stroke="none" stroke-width="1" fill="none" fill-rule="evenodd">
        <g id="Artboard" transform="translate(-1347.000000, -749.000000)">
            <g id="ico-chat-bubble" transform="translate(1347.000000, 749.000000)">
                <g id="Group-22">
                    <circle id="Oval-4" fill="#444B57" cx="24" cy="24" r="24"></circle>
                    <path d="M16.5002,26.5 L16.0002,26.5 C13.5147315,26.5 11.5002,24.4858163 11.5002,22 L11.5002,18 C11.5002,15.5148576 13.5150576,13.5 16.0002,13.5 L26.0002,13.5 C28.4853424,13.5 30.5002,15.5148576 30.5002,18 L30.5002,22 C30.5002,24.4858163 28.4856685,26.5 26.0002,26.5 L21.6902997,26.5 L17.3323819,30.3737047 C17.0099313,30.6603274 16.5002,30.4314244 16.5002,30 L16.5002,26.5 Z M17.5002,28.8865781 L21.1680181,25.6262953 C21.2595436,25.5449393 21.3777429,25.5 21.5002,25.5 L26.0002,25.5 C27.9334224,25.5 29.5002,23.9334929 29.5002,22 L29.5002,18 C29.5002,16.0671424 27.9330576,14.5 26.0002,14.5 L16.0002,14.5 C14.0673424,14.5 12.5002,16.0671424 12.5002,18 L12.5002,22 C12.5002,23.9334929 14.0669776,25.5 16.0002,25.5 L17.0002,25.5 C17.2763424,25.5 17.5002,25.7238576 17.5002,26 L17.5002,28.8865781 Z" id="Stroke-13" fill="#FFFFFF" fill-rule="nonzero"></path>
                    <path d="M25.5002,32.5 C23.8430576,32.5 22.5002,31.1571424 22.5002,29.5 C22.5002,29.2238576 22.7240576,29 23.0002,29 C23.2763424,29 23.5002,29.2238576 23.5002,29.5 C23.5002,30.6048576 24.3953424,31.5 25.5002,31.5 L28.0002,31.5 C28.1328082,31.5 28.2599852,31.5526784 28.3537534,31.6464466 L30.5002,33.7928932 L30.5002,32 C30.5002,31.7238576 30.7240576,31.5 31.0002,31.5 L32.5002,31.5 C33.6050576,31.5 34.5002,30.6048576 34.5002,29.5 L34.5002,27.5 C34.5002,26.3951424 33.6050576,25.5 32.5002,25.5 C32.2240576,25.5 32.0002,25.2761424 32.0002,25 C32.0002,24.7238576 32.2240576,24.5 32.5002,24.5 C34.1573424,24.5 35.5002,25.8428576 35.5002,27.5 L35.5002,29.5 C35.5002,31.1571424 34.1573424,32.5 32.5002,32.5 L31.5002,32.5 L31.5002,35 C31.5002,35.4454524 30.961629,35.6685358 30.6466466,35.3535534 L27.7930932,32.5 L25.5002,32.5 Z" id="Stroke-14" fill="#FFFFFF" fill-rule="nonzero"></path>
                </g>
                <g id="Stroke-13-+-Stroke-14" transform="translate(12.000000, 14.000000)"></g>
            </g>
        </g>
    </g>
</svg>